
      <svg data-logo="logo" xmlns="http://www.w3.org/2000/svg" viewBox="0 0 263 42">
        <g id="logogram" transform="translate(0, 1) rotate(0) "><path d="M20 0C25.3043 4.00466e-07 30.3919 2.10669 34.1426 5.85742C34.8157 6.53058 35.4354 7.24719 36 8H20C16.8174 8 13.7651 9.26421 11.5146 11.5146C9.26421 13.7651 8 16.8174 8 20H20L36.9102 9.31934C38.1656 11.3074 39.0611 13.5027 39.5547 15.8027L32 20H40L39.9941 20.4971C39.8669 25.6213 37.776 30.5092 34.1426 34.1426C30.3919 37.8933 25.3043 40 20 40C14.6957 40 9.60815 37.8933 5.85742 34.1426C5.18426 33.4694 4.56459 32.7528 4 32H20C23.1826 32 26.2349 30.7358 28.4854 28.4854C30.5952 26.3755 31.8383 23.5608 31.9854 20.5947L32 20H20L3.08984 30.6787C1.83452 28.6906 0.941002 26.4951 0.447266 24.1953L8 20H0C8.00931e-07 14.6957 2.1067 9.60815 5.85742 5.85742C9.60815 2.1067 14.6957 -5.79361e-10 20 0Z" fill="#0094F7"/></g>
        <g id="logotype" transform="translate(46, 7.5)"><path fill="#111111" d="M18.85 13.82L12.15 21.24L12.15 16.49Q12.94 15.07 13.69 13.88Q14.44 12.68 15.35 11.47Q16.25 10.27 17.42 8.85L17.42 8.85L23.65 1.54L30.03 1.54L19.28 13.98L18.85 13.82ZM13.52 27L8.31 27L8.31 1.54L13.52 1.54L13.52 8.49L13.42 14.99L13.52 17.53L13.52 27ZM30.30 27L24.13 27L16.58 15.52L19.88 11.62L30.30 27ZM39.63 27.38L39.63 27.38Q36.76 27.38 34.66 26.14Q32.56 24.90 31.42 22.68Q30.28 20.47 30.28 17.53L30.28 17.53Q30.28 14.56 31.42 12.35Q32.56 10.13 34.66 8.89Q36.76 7.65 39.63 7.65L39.63 7.65Q42.52 7.65 44.61 8.89Q46.71 10.13 47.84 12.35Q48.98 14.56 48.98 17.53L48.98 17.53Q48.98 20.47 47.84 22.68Q46.71 24.90 44.61 26.14Q42.52 27.38 39.63 27.38ZM39.63 23.34L39.63 23.34Q41.00 23.34 41.92 22.58Q42.84 21.82 43.31 20.50Q43.77 19.17 43.77 17.52L43.77 17.52Q43.77 15.82 43.31 14.51Q42.84 13.19 41.92 12.44Q41.00 11.69 39.63 11.69L39.63 11.69Q38.26 11.69 37.35 12.44Q36.43 13.19 35.97 14.51Q35.51 15.82 35.51 17.52L35.51 17.52Q35.51 19.17 35.97 20.50Q36.43 21.82 37.35 22.58Q38.26 23.34 39.63 23.34ZM57.27 27.32L57.27 27.32Q55.06 27.32 53.29 26.19Q51.52 25.05 50.50 22.86Q49.47 20.66 49.47 17.48L49.47 17.48Q49.47 14.22 50.53 12.03Q51.59 9.84 53.35 8.75Q55.11 7.65 57.23 7.65L57.23 7.65Q58.85 7.65 59.93 8.20Q61.01 8.75 61.67 9.55Q62.34 10.35 62.67 11.11L62.67 11.11L62.84 11.11L62.84 1.54L67.96 1.54L67.96 27L62.92 27L62.92 23.94L62.67 23.94Q62.32 24.71 61.65 25.49Q60.97 26.27 59.90 26.79Q58.82 27.32 57.27 27.32ZM58.84 23.21L58.84 23.21Q60.14 23.21 61.06 22.49Q61.98 21.77 62.46 20.48Q62.94 19.19 62.94 17.46L62.94 17.46Q62.94 15.72 62.47 14.45Q62.00 13.17 61.08 12.47Q60.15 11.76 58.84 11.76L58.84 11.76Q57.49 11.76 56.57 12.49Q55.66 13.23 55.20 14.51Q54.74 15.79 54.74 17.46L54.74 17.46Q54.74 19.14 55.21 20.44Q55.68 21.74 56.59 22.47Q57.50 23.21 58.84 23.21ZM78.69 27.38L78.69 27.38Q75.77 27.38 73.65 26.18Q71.53 24.98 70.40 22.78Q69.26 20.57 69.26 17.55L69.26 17.55Q69.26 14.59 70.39 12.37Q71.52 10.15 73.58 8.90Q75.65 7.65 78.44 7.65L78.44 7.65Q80.32 7.65 81.94 8.25Q83.56 8.85 84.80 10.06Q86.03 11.26 86.72 13.07Q87.41 14.88 87.41 17.34L87.41 17.34L87.41 18.78L71.36 18.78L71.36 15.57L84.90 15.57L82.51 16.42Q82.51 14.93 82.05 13.83Q81.60 12.73 80.70 12.12Q79.80 11.52 78.47 11.52L78.47 11.52Q77.16 11.52 76.22 12.13Q75.29 12.75 74.81 13.80Q74.34 14.85 74.34 16.20L74.34 16.20L74.34 18.47Q74.34 20.13 74.89 21.26Q75.45 22.39 76.45 22.95Q77.45 23.51 78.78 23.51L78.78 23.51Q79.69 23.51 80.42 23.26Q81.15 23.00 81.68 22.50Q82.20 21.99 82.47 21.26L82.47 21.26L87.12 22.13Q86.66 23.70 85.51 24.89Q84.37 26.08 82.65 26.73Q80.93 27.38 78.69 27.38ZM99.85 27L94.02 27L86.98 7.89L92.43 7.89L95.65 17.81Q96.23 19.67 96.66 21.57Q97.10 23.46 97.56 25.50L97.56 25.50L96.47 25.50Q96.91 23.46 97.34 21.57Q97.76 19.67 98.35 17.81L98.35 17.81L101.52 7.89L106.91 7.89L99.85 27ZM112.48 27L107.35 27L107.35 7.89L112.48 7.89L112.48 27ZM109.91 5.40L109.91 5.40Q108.75 5.40 107.93 4.63Q107.11 3.86 107.11 2.77L107.11 2.77Q107.11 1.67 107.93 0.90Q108.75 0.13 109.91 0.13L109.91 0.13Q111.08 0.13 111.90 0.90Q112.73 1.66 112.73 2.77L112.73 2.77Q112.73 3.86 111.90 4.63Q111.08 5.40 109.91 5.40ZM123.10 27.38L123.10 27.38Q120.23 27.38 118.13 26.14Q116.03 24.90 114.89 22.68Q113.76 20.47 113.76 17.53L113.76 17.53Q113.76 14.56 114.89 12.35Q116.03 10.13 118.13 8.89Q120.23 7.65 123.10 7.65L123.10 7.65Q125.99 7.65 128.09 8.89Q130.18 10.13 131.32 12.35Q132.45 14.56 132.45 17.53L132.45 17.53Q132.45 20.47 131.32 22.68Q130.18 24.90 128.09 26.14Q125.99 27.38 123.10 27.38ZM123.10 23.34L123.10 23.34Q124.47 23.34 125.39 22.58Q126.32 21.82 126.78 20.50Q127.24 19.17 127.24 17.52L127.24 17.52Q127.24 15.82 126.78 14.51Q126.32 13.19 125.39 12.44Q124.47 11.69 123.10 11.69L123.10 11.69Q121.74 11.69 120.82 12.44Q119.91 13.19 119.45 14.51Q118.99 15.82 118.99 17.52L118.99 17.52Q118.99 19.17 119.45 20.50Q119.91 21.82 120.82 22.58Q121.74 23.34 123.10 23.34ZM148.82 27L148.82 27L142.24 27L142.24 22.51L148.58 22.51Q151.04 22.51 152.71 21.63Q154.37 20.76 155.21 18.93Q156.05 17.10 156.05 14.25L156.05 14.25Q156.05 11.41 155.20 9.59Q154.36 7.77 152.71 6.90Q151.06 6.03 148.62 6.03L148.62 6.03L142.12 6.03L142.12 1.54L148.92 1.54Q152.75 1.54 155.51 3.07Q158.27 4.60 159.76 7.44Q161.24 10.29 161.24 14.25L161.24 14.25Q161.24 18.23 159.76 21.09Q158.27 23.94 155.49 25.47Q152.70 27 148.82 27ZM139.88 1.54L145.09 1.54L145.09 27L139.88 27L139.88 1.54ZM168.10 27.38L168.10 27.38Q166.28 27.38 164.84 26.74Q163.40 26.09 162.57 24.82Q161.74 23.55 161.74 21.65L161.74 21.65Q161.74 20.06 162.33 18.98Q162.92 17.91 163.93 17.26Q164.95 16.61 166.24 16.27Q167.53 15.93 168.95 15.79L168.95 15.79Q170.61 15.62 171.62 15.47Q172.64 15.33 173.11 15.01Q173.58 14.70 173.58 14.08L173.58 14.08L173.58 13.99Q173.58 13.17 173.24 12.61Q172.90 12.05 172.23 11.75Q171.57 11.45 170.59 11.45L170.59 11.45Q169.60 11.45 168.86 11.75Q168.13 12.05 167.67 12.54Q167.21 13.04 166.98 13.65L166.98 13.65L162.29 12.87Q162.78 11.21 163.93 10.05Q165.07 8.88 166.77 8.27Q168.47 7.65 170.59 7.65L170.59 7.65Q172.15 7.65 173.60 8.02Q175.05 8.39 176.20 9.16Q177.36 9.93 178.03 11.16Q178.71 12.39 178.71 14.13L178.71 14.13L178.71 27L173.86 27L173.86 24.35L173.68 24.35Q173.22 25.24 172.45 25.91Q171.68 26.59 170.60 26.98Q169.51 27.38 168.10 27.38ZM169.55 23.77L169.55 23.77Q170.76 23.77 171.68 23.29Q172.59 22.81 173.10 21.99Q173.62 21.17 173.62 20.16L173.62 20.16L173.62 18.10Q173.39 18.27 172.93 18.40Q172.47 18.54 171.91 18.64Q171.34 18.75 170.80 18.83Q170.25 18.92 169.82 18.97L169.82 18.97Q168.88 19.10 168.16 19.41Q167.45 19.72 167.05 20.22Q166.66 20.73 166.66 21.51L166.66 21.51Q166.66 22.25 167.04 22.75Q167.41 23.26 168.05 23.51Q168.69 23.77 169.55 23.77ZM188.40 27.38L188.40 27.38Q186.09 27.38 184.31 26.72Q182.53 26.06 181.41 24.80Q180.28 23.55 179.95 21.77L179.95 21.77L184.72 20.95Q185.10 22.28 186.04 22.95Q186.98 23.62 188.55 23.62L188.55 23.62Q190.00 23.62 190.86 23.06Q191.71 22.51 191.71 21.65L191.71 21.65Q191.71 20.90 191.11 20.42Q190.50 19.94 189.25 19.69L189.25 19.69L185.95 19.00Q183.18 18.44 181.82 17.08Q180.45 15.72 180.45 13.58L180.45 13.58Q180.45 11.74 181.46 10.41Q182.47 9.09 184.26 8.37Q186.06 7.65 188.48 7.65L188.48 7.65Q190.74 7.65 192.40 8.28Q194.05 8.90 195.08 10.05Q196.10 11.19 196.45 12.75L196.45 12.75L191.90 13.55Q191.61 12.58 190.78 11.95Q189.95 11.33 188.55 11.33L188.55 11.33Q187.29 11.33 186.43 11.86Q185.58 12.39 185.58 13.26L185.58 13.26Q185.58 13.99 186.13 14.49Q186.69 14.99 188.04 15.26L188.04 15.26L191.47 15.94Q194.24 16.51 195.59 17.78Q196.94 19.05 196.94 21.10L196.94 21.10Q196.94 22.98 195.85 24.39Q194.75 25.80 192.83 26.59Q190.91 27.38 188.40 27.38ZM203.26 15.94L203.26 15.94L203.26 27L198.14 27L198.14 1.54L203.16 1.54L203.16 12.66L202.75 12.66Q203.50 10.27 205.03 8.96Q206.56 7.65 208.99 7.65L208.99 7.65Q210.97 7.65 212.45 8.52Q213.93 9.38 214.74 11.00Q215.55 12.61 215.55 14.85L215.55 14.85L215.55 27L210.42 27L210.42 15.74Q210.42 13.96 209.51 12.95Q208.59 11.94 206.97 11.94L206.97 11.94Q205.89 11.94 205.05 12.41Q204.20 12.88 203.73 13.77Q203.26 14.66 203.26 15.94Z"/></g>
        
      </svg>
    